M48
; DRILL file {KiCad 8.0.6} date 2025-03-13T06:25:39-0400
; FORMAT={-:-/ absolute / metric / decimal}
; #@! TF.CreationDate,2025-03-13T06:25:39-04:00
; #@! TF.GenerationSoftware,Kicad,Pcbnew,8.0.6
; #@! TF.FileFunction,Plated,1,6,PTH
FMAT,2
METRIC
; #@! TA.AperFunction,Plated,PTH,ViaDrill
T1C0.200
; #@! TA.AperFunction,Plated,PTH,ComponentDrill
T2C0.200
; #@! TA.AperFunction,Plated,PTH,ViaDrill
T3C0.250
; #@! TA.AperFunction,Plated,PTH,ViaDrill
T4C0.300
; #@! TA.AperFunction,Plated,PTH,ViaDrill
T5C0.350
; #@! TA.AperFunction,Plated,PTH,ViaDrill
T6C0.400
; #@! TA.AperFunction,Plated,PTH,ComponentDrill
T7C0.600
; #@! TA.AperFunction,Plated,PTH,ComponentDrill
T8C0.780
; #@! TA.AperFunction,Plated,PTH,ComponentDrill
T9C0.910
; #@! TA.AperFunction,Plated,PTH,ComponentDrill
T10C1.000
; #@! TA.AperFunction,Plated,PTH,ComponentDrill
T11C1.067
; #@! TA.AperFunction,Plated,PTH,ComponentDrill
T12C1.400
; #@! TA.AperFunction,Plated,PTH,ComponentDrill
T13C1.600
; #@! TA.AperFunction,Plated,PTH,ComponentDrill
T14C3.200
%
G90
G05
T1
X74.26Y-89.27
X74.26Y-90.27
X78.19Y-88.99
X82.88Y-89.87
X83.13Y-89.17
X85.979Y-80.521
X87.12Y-87.11
X88.41Y-78.14
X88.51Y-76.07
X88.92Y-77.63
X93.2Y-85.15
X94.17Y-88.75
X97.21Y-86.52
X98.6Y-90.42
X99.242Y-84.468
X116.87Y-114.12
X125.92Y-97.05
X127.95Y-98.905
X127.98Y-98.485
X128.4Y-98.905
X128.45Y-98.475
X129.5Y-98.475
X129.56Y-98.905
X129.94Y-98.5
X130.03Y-98.91
X141.73Y-108.94
X141.73Y-109.84
X142.7Y-108.49
X142.7Y-109.4
X142.7Y-110.3
X143.68Y-108.94
X143.68Y-109.84
X156.35Y-97.73
X200.51Y-93.9
X216.74Y-95.41
T2
X111.802Y-108.4
X111.802Y-109.305
X111.87Y-96.6
X111.87Y-97.505
X111.897Y-102.005
X111.897Y-102.91
X111.965Y-90.26
X111.965Y-91.165
X112.777Y-107.948
X112.777Y-108.853
X112.777Y-109.758
X112.845Y-96.148
X112.845Y-97.053
X112.845Y-97.958
X112.872Y-101.552
X112.872Y-102.457
X112.872Y-103.362
X112.94Y-89.807
X112.94Y-90.712
X112.94Y-91.617
X113.752Y-108.4
X113.752Y-109.305
X113.82Y-96.6
X113.82Y-97.505
X113.847Y-102.005
X113.847Y-102.91
X113.915Y-90.26
X113.915Y-91.165
T3
X71.14Y-81.435
X71.14Y-82.57
X71.14Y-83.705
X72.49Y-97.62
X73.4Y-101.225
X75.42Y-79.98
X75.43Y-80.64
X75.89Y-88.27
X75.96Y-87.12
X76.21Y-81.59
X76.21Y-82.565
X76.21Y-83.54
X76.76Y-91.913
X77.0Y-86.29
X77.0Y-87.12
X77.145Y-97.775
X77.155Y-99.955
X77.27Y-98.87
X77.31Y-100.87
X77.9Y-98.68
X78.7Y-91.93
X79.01Y-93.19
X79.47Y-94.92
X80.405Y-94.48
X80.405Y-95.68
X81.65Y-100.39
X81.65Y-101.49
X81.65Y-102.36
X81.68Y-94.18
X81.68Y-95.68
X83.25Y-102.53
X83.7Y-91.14
X83.7Y-92.02
X84.7Y-91.14
X84.7Y-92.02
X85.18Y-85.34
X86.35Y-85.34
X86.36Y-86.22
X88.605Y-93.02
X89.46Y-93.04
X90.49Y-110.065
X90.49Y-112.71
X90.49Y-115.355
X91.93Y-99.95
X91.93Y-101.7
X92.66Y-89.68
X92.73Y-110.07
X92.73Y-112.715
X94.69Y-99.95
X94.69Y-101.7
X95.05Y-87.91
X95.25Y-110.065
X95.25Y-112.71
X95.25Y-115.355
X97.48Y-99.95
X97.48Y-101.7
X97.77Y-110.06
X97.77Y-112.705
X97.77Y-115.35
X99.37Y-87.77
X100.11Y-97.68
X100.11Y-99.43
X100.11Y-101.05
X100.67Y-112.705
X100.67Y-115.35
X102.45Y-91.62
X102.45Y-93.37
X102.45Y-94.99
X102.45Y-96.73
X102.45Y-98.48
X102.45Y-100.1
X104.96Y-89.66
X104.96Y-91.41
X104.96Y-93.03
X105.33Y-107.82
X105.33Y-109.545
X105.46Y-98.448
X105.46Y-100.825
X106.93Y-106.08
X106.93Y-107.82
X106.93Y-109.545
X106.93Y-111.27
X107.22Y-96.075
X107.22Y-98.448
X107.22Y-100.825
X107.22Y-103.202
X107.53Y-88.43
X107.53Y-90.18
X107.53Y-91.8
X108.81Y-107.82
X108.81Y-109.545
X108.81Y-111.27
X108.98Y-98.448
X108.98Y-100.825
X110.2Y-88.43
X110.2Y-90.18
X110.2Y-91.8
X110.635Y-104.892
X110.635Y-106.292
X110.69Y-107.82
X110.69Y-109.545
X110.69Y-111.27
X110.74Y-96.075
X110.74Y-98.452
X110.74Y-100.828
X110.74Y-103.205
X110.795Y-94.605
X110.825Y-93.205
X113.03Y-111.27
X113.04Y-88.94
X123.77Y-113.19
X123.77Y-115.04
X123.77Y-116.89
X125.97Y-113.19
X125.97Y-116.89
X128.01Y-113.19
X128.01Y-115.04
X128.01Y-116.89
X129.96Y-113.47
X129.96Y-115.04
X129.96Y-116.57
X132.59Y-97.67
X137.41Y-113.7
X137.41Y-115.5
X138.91Y-113.8
X138.91Y-115.68
X140.43Y-113.97
X140.43Y-115.96
X141.1Y-108.82
X141.18Y-112.75
X141.41Y-111.36
X141.85Y-115.26
X142.58Y-113.69
X143.41Y-111.36
X143.41Y-112.47
X143.44Y-114.97
X144.43Y-113.55
X145.31Y-110.22
X145.4Y-111.36
X145.4Y-112.47
T4
X70.01Y-77.78
X70.01Y-86.54
X70.01Y-89.46
X70.01Y-92.38
X70.05Y-103.96
X70.05Y-106.88
X70.05Y-109.8
X70.05Y-112.72
X72.36Y-105.54
X72.36Y-108.46
X72.36Y-111.38
X72.75Y-92.83
X72.75Y-94.83
X72.865Y-80.29
X75.21Y-107.12
X75.21Y-110.04
X75.21Y-112.96
X76.92Y-75.02
X76.93Y-70.77
X78.26Y-117.77
X78.27Y-77.33
X78.29Y-72.66
X79.6Y-120.17
X79.85Y-70.77
X80.02Y-80.08
X80.35Y-83.22
X80.36Y-84.99
X80.61Y-75.95
X81.01Y-77.45
X81.18Y-117.77
X81.59Y-77.88
X82.52Y-120.17
X82.6Y-79.78
X82.76Y-107.62
X82.76Y-110.54
X82.77Y-70.77
X83.667Y-75.98
X83.667Y-77.13
X83.667Y-78.19
X84.1Y-117.77
X84.787Y-76.0
X84.787Y-77.15
X84.787Y-78.21
X85.44Y-120.17
X85.69Y-70.77
X85.897Y-76.01
X85.897Y-77.16
X85.897Y-78.22
X85.99Y-108.6
X87.02Y-117.77
X87.48Y-92.83
X87.79Y-88.84
X87.79Y-89.91
X87.79Y-90.92
X88.097Y-81.05
X88.36Y-120.17
X88.61Y-70.77
X88.63Y-105.52
X88.64Y-107.71
X89.517Y-82.25
X89.8Y-77.95
X89.94Y-117.77
X91.03Y-80.33
X91.28Y-120.17
X91.51Y-76.02
X91.53Y-70.77
X91.74Y-93.97
X91.82Y-104.83
X91.82Y-106.99
X92.25Y-75.35
X92.58Y-93.41
X92.86Y-117.77
X93.02Y-84.14
X94.2Y-120.17
X94.31Y-103.9
X94.31Y-106.01
X94.31Y-108.13
X94.42Y-94.9
X94.53Y-74.76
X96.17Y-105.1
X96.22Y-87.92
X96.58Y-107.08
X96.83Y-95.73
X97.34Y-75.69
X97.732Y-94.9
X98.08Y-83.83
X98.91Y-104.01
X98.91Y-107.27
X99.92Y-78.24
X100.5Y-70.77
X100.78Y-88.35
X101.2Y-105.63
X101.29Y-87.31
X102.16Y-118.25
X103.08Y-86.06
X103.42Y-70.77
X103.74Y-78.96
X103.99Y-76.87
X104.08Y-74.09
X104.33Y-120.58
X104.93Y-86.62
X105.34Y-71.97
X105.94Y-85.46
X105.95Y-84.56
X106.61Y-113.41
X108.24Y-86.46
X108.24Y-120.63
X108.44Y-75.42
X109.76Y-118.18
X109.93Y-115.03
X111.32Y-118.72
X111.38Y-120.59
X112.06Y-86.46
X112.08Y-78.96
X112.73Y-116.03
X113.37Y-78.78
X114.58Y-114.87
X114.745Y-93.165
X114.815Y-105.085
X115.1Y-70.77
X115.29Y-120.64
X115.73Y-106.9
X116.12Y-87.6
X116.258Y-91.845
X116.62Y-108.09
X116.848Y-91.845
X117.438Y-91.845
X117.52Y-82.53
X117.58Y-100.81
X117.59Y-104.83
X118.02Y-70.77
X118.14Y-87.58
X118.51Y-118.76
X118.57Y-120.63
X118.94Y-106.31
X119.46Y-109.98
X119.46Y-112.41
X119.47Y-98.09
X119.56Y-100.81
X119.67Y-79.24
X120.01Y-103.56
X120.42Y-93.31
X120.91Y-108.0
X120.94Y-70.77
X121.44Y-98.09
X121.52Y-100.81
X122.41Y-93.31
X122.43Y-118.62
X122.48Y-120.68
X122.49Y-109.98
X122.54Y-108.26
X122.66Y-103.58
X123.25Y-99.42
X123.6Y-106.45
X123.86Y-70.77
X124.03Y-103.675
X124.29Y-93.31
X124.75Y-105.47
X124.89Y-99.44
X125.85Y-106.38
X125.955Y-101.9
X126.08Y-98.67
X126.38Y-109.98
X126.44Y-104.33
X126.68Y-118.62
X126.68Y-120.7
X126.795Y-102.625
X126.98Y-70.76
X127.34Y-91.85
X127.34Y-92.495
X127.34Y-93.14
X127.45Y-108.42
X128.79Y-105.305
X128.87Y-109.14
X128.98Y-99.24
X129.34Y-111.52
X129.365Y-104.025
X129.46Y-107.25
X129.79Y-100.56
X129.9Y-70.76
X130.07Y-118.53
X130.23Y-120.7
X130.37Y-109.78
X130.79Y-91.85
X130.79Y-92.495
X130.79Y-93.14
X131.35Y-109.17
X131.56Y-107.04
X131.701Y-99.691
X131.77Y-98.26
X131.86Y-103.25
X131.875Y-99.115
X132.82Y-70.76
X133.11Y-93.01
X133.31Y-98.005
X133.57Y-103.32
X134.075Y-100.4
X134.11Y-107.35
X134.22Y-73.79
X134.41Y-85.26
X134.74Y-100.4
X134.85Y-86.66
X134.86Y-93.03
X135.0Y-109.92
X135.15Y-105.64
X135.22Y-118.68
X135.39Y-100.4
X135.53Y-120.7
X135.74Y-70.76
X136.03Y-111.98
X136.14Y-85.26
X137.05Y-93.03
X137.525Y-100.4
X137.57Y-93.6
X138.01Y-98.57
X138.48Y-105.54
X138.59Y-85.54
X138.64Y-102.7
X138.66Y-70.76
X138.88Y-108.36
X138.91Y-100.98
X139.06Y-117.88
X139.09Y-120.68
X139.2Y-98.56
X139.24Y-96.23
X139.25Y-95.64
X139.66Y-111.71
X139.82Y-87.51
X140.05Y-110.12
X140.19Y-85.49
X140.237Y-107.04
X140.56Y-99.5
X140.79Y-102.61
X141.52Y-100.6
X141.58Y-70.76
X142.1Y-88.19
X142.19Y-98.82
X142.46Y-117.92
X142.46Y-120.68
X142.49Y-101.59
X142.92Y-95.672
X142.92Y-96.25
X142.92Y-96.828
X143.08Y-92.04
X143.19Y-99.79
X143.5Y-102.52
X143.5Y-103.95
X143.5Y-105.4
X144.24Y-100.75
X144.28Y-98.28
X144.5Y-70.76
X145.46Y-93.63
X145.7Y-102.52
X145.7Y-103.95
X145.7Y-105.4
X145.97Y-117.75
X146.15Y-98.66
X146.15Y-100.5
X146.55Y-113.6
X147.17Y-111.12
X147.24Y-93.79
X147.36Y-120.69
X147.37Y-108.0
X147.42Y-70.76
X147.98Y-102.17
X147.98Y-104.61
X148.12Y-73.06
X148.19Y-99.46
X148.28Y-116.02
X148.37Y-112.49
X148.43Y-109.23
X148.79Y-110.74
X149.38Y-113.36
X150.34Y-70.76
X151.54Y-119.38
X151.62Y-94.16
X151.62Y-95.54
X151.98Y-114.87
X152.457Y-120.69
X152.93Y-94.16
X152.93Y-95.54
X153.09Y-109.52
X153.12Y-113.58
X153.26Y-70.76
X153.29Y-83.1
X153.5Y-97.49
X154.16Y-94.16
X154.16Y-95.54
X154.43Y-111.81
X155.47Y-94.16
X155.88Y-101.95
X156.3Y-111.15
X156.39Y-70.76
X157.01Y-112.96
X157.06Y-94.44
X157.553Y-120.69
X157.56Y-101.47
X158.37Y-101.47
X158.68Y-109.49
X159.21Y-101.47
X159.31Y-70.76
X159.92Y-113.62
X160.41Y-97.72
X160.51Y-111.26
X160.59Y-103.96
X160.94Y-107.01
X161.02Y-96.31
X161.28Y-115.68
X162.23Y-70.76
X162.65Y-120.69
X163.02Y-108.27
X164.76Y-89.24
X165.15Y-70.76
X165.6Y-113.77
X165.625Y-102.185
X165.66Y-97.49
X166.29Y-106.45
X166.29Y-107.2
X166.29Y-107.95
X167.145Y-92.985
X167.39Y-120.7
X168.07Y-70.76
X168.54Y-105.04
X169.29Y-117.8
X169.85Y-113.77
X170.99Y-70.76
X171.27Y-93.5
X171.41Y-91.13
X171.69Y-105.97
X172.38Y-77.4
X172.41Y-85.88
X172.487Y-120.7
X173.27Y-97.11
X173.28Y-94.34
X173.42Y-108.08
X173.42Y-109.46
X173.42Y-111.14
X173.49Y-113.77
X173.71Y-80.41
X173.88Y-74.99
X173.91Y-70.76
X175.16Y-108.33
X175.16Y-109.93
X175.24Y-92.13
X175.29Y-72.83
X175.3Y-77.4
X176.8Y-74.99
X176.83Y-70.76
X177.0Y-94.27
X177.583Y-120.7
X177.65Y-113.96
X177.67Y-108.99
X178.21Y-72.83
X178.27Y-116.15
X179.75Y-70.76
X180.88Y-106.04
X182.68Y-120.7
X183.43Y-94.73
X183.62Y-103.32
X184.34Y-90.79
X184.72Y-86.67
X185.26Y-74.38
X185.35Y-70.76
X185.88Y-119.0
X186.56Y-108.47
X186.63Y-72.45
X187.34Y-120.68
X187.37Y-114.37
X187.37Y-117.09
X188.18Y-74.38
X188.27Y-70.76
X188.44Y-109.83
X189.55Y-72.45
X189.67Y-88.96
X190.15Y-112.23
X191.1Y-74.38
X191.19Y-70.76
X191.61Y-89.52
X192.41Y-112.22
X192.437Y-120.68
X192.47Y-72.45
X193.02Y-92.59
X193.93Y-98.6
X194.02Y-74.38
X194.11Y-70.76
X194.32Y-94.2
X195.09Y-89.09
X195.22Y-109.44
X195.39Y-72.45
X195.9Y-103.32
X196.88Y-111.73
X196.94Y-74.38
X196.97Y-95.14
X197.03Y-70.76
X197.533Y-120.68
X198.31Y-72.45
X198.46Y-107.5
X198.5Y-93.82
X198.71Y-90.11
X198.9Y-98.65
X199.86Y-74.38
X199.95Y-70.76
X200.38Y-83.41
X200.5Y-91.67
X200.5Y-92.22
X200.53Y-106.15
X200.53Y-108.84
X201.38Y-89.67
X202.63Y-120.68
X202.94Y-106.99
X203.38Y-86.37
X203.81Y-83.08
X204.3Y-106.29
X204.38Y-89.29
X205.56Y-105.92
X205.65Y-87.05
X205.79Y-70.76
X206.14Y-81.27
X206.92Y-84.27
X207.02Y-98.38
X207.37Y-120.69
X207.57Y-80.57
X207.72Y-88.03
X208.19Y-92.39
X208.19Y-105.79
X208.46Y-99.38
X208.5Y-85.45
X208.71Y-70.76
X209.46Y-88.87
X209.91Y-98.3
X210.02Y-119.29
X210.72Y-106.29
X210.86Y-110.54
X211.09Y-88.37
X211.63Y-70.76
X211.71Y-78.1
X212.0Y-88.94
X212.06Y-116.48
X212.245Y-103.505
X212.467Y-120.69
X212.91Y-89.37
X214.07Y-89.2
X214.44Y-110.18
X214.64Y-112.23
X215.63Y-78.09
X215.81Y-107.07
X216.12Y-102.43
X216.18Y-105.2
X218.04Y-95.182
X218.04Y-98.085
X218.04Y-100.987
X218.04Y-103.89
X218.35Y-92.14
X218.35Y-92.7
X219.19Y-107.2
X219.2Y-109.79
X219.27Y-89.78
X219.38Y-92.11
X219.64Y-78.093
X219.64Y-80.995
X219.64Y-83.897
X219.64Y-86.8
X219.88Y-93.983
X219.88Y-96.885
X219.88Y-99.787
X219.88Y-102.69
X219.88Y-105.593
X219.9Y-107.2
X219.94Y-89.79
X220.06Y-92.12
X220.08Y-112.49
X220.09Y-109.81
T5
X134.75Y-108.6
T6
X120.04Y-95.93
X120.47Y-96.7
X120.61Y-90.68
X121.27Y-89.51
X121.31Y-91.72
X122.37Y-96.6
X122.44Y-92.51
X123.48Y-97.73
X123.66Y-96.89
X123.74Y-92.52
X124.6Y-91.79
X124.61Y-88.88
X124.67Y-97.73
X124.95Y-92.69
X124.96Y-96.89
X128.13Y-95.51
X128.28Y-99.77
X128.96Y-95.48
X128.98Y-100.2
X129.66Y-99.77
X129.76Y-95.5
X131.79Y-96.84
X133.64Y-96.84
X134.33Y-88.68
X134.44Y-89.7
X134.86Y-90.76
X135.12Y-91.73
X135.41Y-96.84
X137.46Y-96.84
X139.35Y-91.5
X141.12Y-91.51
X156.415Y-76.3
X170.74Y-103.42
X194.85Y-83.35
X211.85Y-96.99
X211.85Y-98.24
X211.85Y-99.48
X212.65Y-96.2
X212.65Y-97.62
X212.65Y-98.88
X212.65Y-100.29
X213.27Y-97.0
X213.27Y-98.25
X213.27Y-99.49
X213.9Y-96.19
X213.9Y-97.61
X213.9Y-98.87
X213.9Y-100.28
X214.52Y-97.0
X214.52Y-98.25
X214.52Y-99.49
X215.15Y-96.2
X215.15Y-97.62
X215.15Y-98.88
X215.15Y-100.29
X215.95Y-96.99
X215.95Y-98.24
X215.95Y-99.48
T8
X150.065Y-77.8
X150.065Y-85.74
X152.605Y-77.8
X152.605Y-85.74
X155.145Y-77.8
X155.145Y-85.74
X157.685Y-77.8
X157.685Y-85.74
X160.225Y-77.8
X160.225Y-85.74
X162.765Y-77.8
X162.765Y-85.74
X165.305Y-77.8
X165.305Y-85.74
X167.845Y-77.8
X167.845Y-85.74
T9
X112.72Y-117.45
X115.26Y-117.45
T10
X115.93Y-73.38
X118.47Y-73.38
X121.01Y-73.38
X123.55Y-73.38
X126.09Y-73.38
X128.63Y-73.38
X131.17Y-73.38
X139.407Y-73.38
X141.947Y-73.38
X144.487Y-73.38
X152.685Y-73.38
X155.225Y-73.38
X157.765Y-73.38
X160.305Y-73.38
X162.845Y-73.38
X165.385Y-73.38
X167.925Y-73.38
X170.465Y-73.38
X177.0Y-96.57
X177.0Y-104.17
X190.74Y-116.96
X193.28Y-116.96
X195.82Y-116.96
X198.36Y-116.96
X200.9Y-116.96
X203.44Y-116.96
X205.98Y-116.96
X208.52Y-116.96
X214.62Y-80.91
X214.62Y-83.45
X214.62Y-85.99
X217.16Y-80.91
X217.16Y-83.45
X217.16Y-85.99
T11
X179.15Y-76.97
X182.15Y-76.97
X185.15Y-76.97
X188.15Y-76.97
X191.15Y-76.97
X194.15Y-76.97
X197.15Y-76.97
X200.15Y-76.97
X203.15Y-76.97
X206.15Y-76.97
T12
X87.05Y-114.68
X92.05Y-114.68
X120.83Y-114.68
X125.83Y-114.68
T13
X78.63Y-106.83
X79.59Y-113.94
X95.72Y-71.47
X98.7Y-118.3
X132.64Y-118.94
X164.09Y-94.86
X190.64Y-106.79
X197.01Y-86.66
T14
X73.14Y-73.28
X73.14Y-117.31
X216.44Y-73.28
X216.44Y-117.31
T7
X70.71Y-85.195G85X69.91Y-85.195
G05
X70.71Y-93.845G85X69.91Y-93.845
G05
X75.03Y-85.195G85X73.93Y-85.195
G05
X75.03Y-93.845G85X73.93Y-93.845
G05
M30
