M48
; DRILL file {KiCad 8.0.6} date 2025-02-16T00:38:11-0500
; FORMAT={-:-/ absolute / metric / decimal}
; #@! TF.CreationDate,2025-02-16T00:38:11-05:00
; #@! TF.GenerationSoftware,Kicad,Pcbnew,8.0.6
; #@! TF.FileFunction,Plated,1,2,PTH
FMAT,2
METRIC
; #@! TA.AperFunction,Plated,PTH,ViaDrill
T1C0.200
; #@! TA.AperFunction,Plated,PTH,ViaDrill
T2C0.400
; #@! TA.AperFunction,Plated,PTH,ViaDrill
T3C0.500
; #@! TA.AperFunction,Plated,PTH,ComponentDrill
T4C0.600
; #@! TA.AperFunction,Plated,PTH,ComponentDrill
T5C0.650
; #@! TA.AperFunction,Plated,PTH,ComponentDrill
T6C0.780
; #@! TA.AperFunction,Plated,PTH,ComponentDrill
T7C1.000
; #@! TA.AperFunction,Plated,PTH,ComponentDrill
T8C1.020
; #@! TA.AperFunction,Plated,PTH,ComponentDrill
T9C3.200
%
G90
G05
T1
X107.35Y-81.98
T2
X107.85Y-84.08
X109.85Y-88.08
X111.335Y-89.565
X112.785Y-107.265
X112.85Y-80.978
X112.85Y-87.08
X113.85Y-72.4
X113.85Y-86.08
X113.85Y-89.58
X114.85Y-70.08
X115.85Y-87.58
X116.85Y-80.58
X117.165Y-69.08
X118.325Y-88.105
X119.1Y-77.83
X119.705Y-69.225
X121.35Y-69.08
X122.899Y-100.031
X125.35Y-72.58
X125.6Y-90.447
X125.85Y-68.857
X127.584Y-88.08
X128.85Y-79.58
X129.26Y-108.814
X129.85Y-83.08
X132.35Y-70.667
X132.85Y-108.08
X134.6Y-97.58
X134.6Y-98.803
X134.6Y-100.08
X135.85Y-108.08
X137.85Y-72.08
X138.76Y-123.04
X139.35Y-113.58
X143.85Y-129.08
X146.85Y-119.58
X147.6Y-110.58
X147.85Y-105.08
X148.35Y-106.08
X152.35Y-129.08
X152.6Y-100.303
X154.225Y-100.205
X159.35Y-79.08
X160.308Y-91.523
X161.85Y-129.08
X162.85Y-105.58
X163.85Y-106.58
X168.35Y-101.58
X169.35Y-100.58
X169.85Y-109.08
X170.35Y-99.58
X171.35Y-98.58
X174.35Y-85.58
X174.35Y-109.58
X174.35Y-110.58
X175.35Y-119.58
X175.6Y-108.83
X176.1Y-99.83
X176.35Y-79.08
X176.35Y-120.65
X176.85Y-106.58
X177.35Y-85.58
X177.6Y-123.33
X178.35Y-70.08
X178.35Y-76.58
X178.711Y-111.941
X178.85Y-102.58
X179.35Y-76.58
X179.48Y-108.08
X180.35Y-101.08
X180.85Y-85.08
X180.85Y-99.08
X182.1Y-109.33
X182.68Y-110.16
X183.939Y-85.991
X184.35Y-108.33
X184.56Y-96.08
X184.85Y-79.08
X187.1Y-87.08
X188.29Y-87.08
X188.35Y-93.58
X188.85Y-100.08
X188.85Y-112.08
X189.35Y-85.08
X189.85Y-111.08
X190.194Y-92.67
X190.27Y-96.345
X190.85Y-108.58
X191.765Y-90.995
X191.956Y-84.582
X192.18Y-108.25
X192.35Y-102.08
X194.35Y-91.08
X195.35Y-91.08
X195.85Y-78.08
X195.99Y-104.72
T3
X131.35Y-67.08
X161.62Y-122.555
X162.85Y-122.08
T6
X115.41Y-106.69
X115.41Y-109.23
X115.41Y-111.77
X115.41Y-114.31
X115.41Y-116.85
X115.41Y-119.39
X115.41Y-121.93
X115.41Y-124.47
X123.35Y-106.69
X123.35Y-109.23
X123.35Y-111.77
X123.35Y-114.31
X123.35Y-116.85
X123.35Y-119.39
X123.35Y-121.93
X123.35Y-124.47
T7
X110.64Y-127.795
X112.085Y-65.97
X113.18Y-127.795
X114.625Y-65.97
X115.72Y-127.795
X116.31Y-92.5
X116.31Y-95.04
X116.31Y-97.58
X117.165Y-65.97
X118.26Y-127.795
X118.85Y-92.5
X118.85Y-95.04
X118.85Y-97.58
X119.705Y-65.97
X120.8Y-127.795
X122.245Y-65.97
X123.34Y-127.795
X124.785Y-65.97
X125.88Y-127.795
X127.325Y-65.97
X128.42Y-127.795
X142.57Y-65.89
X145.11Y-65.89
X147.65Y-65.89
X150.75Y-114.15
X158.35Y-114.15
X160.365Y-65.89
X162.905Y-65.89
X165.07Y-127.865
X165.445Y-65.89
X167.61Y-127.865
X167.985Y-65.89
X170.15Y-127.865
X170.525Y-65.89
X172.69Y-127.865
X173.065Y-65.89
X175.23Y-127.865
X175.605Y-65.89
X177.77Y-127.865
X178.145Y-65.89
X180.31Y-127.865
X182.85Y-127.865
T8
X106.32Y-91.58
X106.32Y-94.58
X106.32Y-97.58
X106.32Y-100.58
X106.32Y-103.58
X106.32Y-106.58
X106.32Y-109.58
X106.32Y-112.58
X106.32Y-115.58
X106.32Y-118.58
T9
X101.93Y-67.16
X101.93Y-127.0
X191.77Y-67.16
X191.77Y-127.0
T4
X98.8Y-77.13G85X98.1Y-77.13
G05
X98.8Y-85.48G85X98.1Y-85.48
G05
T5
X101.55Y-79.08G85X101.35Y-79.08
G05
X101.55Y-83.53G85X101.35Y-83.53
G05
M30
