G04 #@! TF.GenerationSoftware,KiCad,Pcbnew,8.0.6*
G04 #@! TF.CreationDate,2025-02-16T00:38:08-05:00*
G04 #@! TF.ProjectId,SCAN_mainboard,5343414e-5f6d-4616-996e-626f6172642e,v1.0*
G04 #@! TF.SameCoordinates,Original*
G04 #@! TF.FileFunction,Paste,Top*
G04 #@! TF.FilePolarity,Positive*
%FSLAX46Y46*%
G04 Gerber Fmt 4.6, Leading zero omitted, Abs format (unit mm)*
G04 Created by KiCad (PCBNEW 8.0.6) date 2025-02-16 00:38:08*
%MOMM*%
%LPD*%
G01*
G04 APERTURE LIST*
G04 Aperture macros list*
%AMRoundRect*
0 Rectangle with rounded corners*
0 $1 Rounding radius*
0 $2 $3 $4 $5 $6 $7 $8 $9 X,Y pos of 4 corners*
0 Add a 4 corners polygon primitive as box body*
4,1,4,$2,$3,$4,$5,$6,$7,$8,$9,$2,$3,0*
0 Add four circle primitives for the rounded corners*
1,1,$1+$1,$2,$3*
1,1,$1+$1,$4,$5*
1,1,$1+$1,$6,$7*
1,1,$1+$1,$8,$9*
0 Add four rect primitives between the rounded corners*
20,1,$1+$1,$2,$3,$4,$5,0*
20,1,$1+$1,$4,$5,$6,$7,0*
20,1,$1+$1,$6,$7,$8,$9,0*
20,1,$1+$1,$8,$9,$2,$3,0*%
G04 Aperture macros list end*
%ADD10C,0.000000*%
%ADD11RoundRect,0.250000X-0.262500X-0.450000X0.262500X-0.450000X0.262500X0.450000X-0.262500X0.450000X0*%
%ADD12RoundRect,0.160000X0.245000X0.160000X-0.245000X0.160000X-0.245000X-0.160000X0.245000X-0.160000X0*%
%ADD13RoundRect,0.093750X0.093750X0.106250X-0.093750X0.106250X-0.093750X-0.106250X0.093750X-0.106250X0*%
%ADD14RoundRect,0.090000X-0.660000X-0.360000X0.660000X-0.360000X0.660000X0.360000X-0.660000X0.360000X0*%
%ADD15RoundRect,0.250000X-0.450000X0.262500X-0.450000X-0.262500X0.450000X-0.262500X0.450000X0.262500X0*%
%ADD16RoundRect,0.250000X0.262500X0.450000X-0.262500X0.450000X-0.262500X-0.450000X0.262500X-0.450000X0*%
%ADD17RoundRect,0.250000X0.450000X-0.262500X0.450000X0.262500X-0.450000X0.262500X-0.450000X-0.262500X0*%
%ADD18RoundRect,0.250000X-0.700000X1.200000X-0.700000X-1.200000X0.700000X-1.200000X0.700000X1.200000X0*%
%ADD19RoundRect,0.100000X-0.575000X0.100000X-0.575000X-0.100000X0.575000X-0.100000X0.575000X0.100000X0*%
%ADD20R,0.850000X0.300000*%
%ADD21RoundRect,0.225000X-0.250000X0.225000X-0.250000X-0.225000X0.250000X-0.225000X0.250000X0.225000X0*%
%ADD22RoundRect,0.250000X-0.525000X-0.250000X0.525000X-0.250000X0.525000X0.250000X-0.525000X0.250000X0*%
%ADD23RoundRect,0.225000X-0.225000X-0.375000X0.225000X-0.375000X0.225000X0.375000X-0.225000X0.375000X0*%
%ADD24RoundRect,0.225000X-0.225000X-0.250000X0.225000X-0.250000X0.225000X0.250000X-0.225000X0.250000X0*%
%ADD25RoundRect,0.250000X0.625000X-0.375000X0.625000X0.375000X-0.625000X0.375000X-0.625000X-0.375000X0*%
%ADD26RoundRect,0.062500X-0.062500X-0.337500X0.062500X-0.337500X0.062500X0.337500X-0.062500X0.337500X0*%
%ADD27RoundRect,0.062500X-0.337500X-0.062500X0.337500X-0.062500X0.337500X0.062500X-0.337500X0.062500X0*%
%ADD28RoundRect,0.225000X-0.225000X-0.225000X0.225000X-0.225000X0.225000X0.225000X-0.225000X0.225000X0*%
%ADD29RoundRect,0.225000X0.225000X0.250000X-0.225000X0.250000X-0.225000X-0.250000X0.225000X-0.250000X0*%
%ADD30RoundRect,0.375000X-0.375000X0.625000X-0.375000X-0.625000X0.375000X-0.625000X0.375000X0.625000X0*%
%ADD31RoundRect,0.500000X-1.400000X0.500000X-1.400000X-0.500000X1.400000X-0.500000X1.400000X0.500000X0*%
%ADD32RoundRect,0.100000X-0.225000X-0.100000X0.225000X-0.100000X0.225000X0.100000X-0.225000X0.100000X0*%
%ADD33R,0.889000X1.498600*%
%ADD34R,0.812800X0.812800*%
G04 APERTURE END LIST*
D10*
G36*
X106914432Y-81875968D02*
G01*
X106923886Y-81878836D01*
X106932601Y-81883494D01*
X106940239Y-81889760D01*
X106946505Y-81897398D01*
X106951163Y-81906113D01*
X106954031Y-81915567D01*
X106954999Y-81925399D01*
X106954999Y-82034599D01*
X106954031Y-82044431D01*
X106951163Y-82053885D01*
X106946505Y-82062600D01*
X106940239Y-82070238D01*
X106932601Y-82076504D01*
X106923886Y-82081162D01*
X106914432Y-82084030D01*
X106904600Y-82084998D01*
X106795400Y-82084998D01*
X106785568Y-82084030D01*
X106776114Y-82081162D01*
X106767399Y-82076504D01*
X106759761Y-82070238D01*
X106753495Y-82062600D01*
X106748837Y-82053885D01*
X106745969Y-82044431D01*
X106744999Y-82034599D01*
X106744999Y-81925399D01*
X106745969Y-81915567D01*
X106748837Y-81906113D01*
X106753495Y-81897398D01*
X106759761Y-81889760D01*
X106767399Y-81883494D01*
X106776114Y-81878836D01*
X106785568Y-81875968D01*
X106795400Y-81875000D01*
X106904600Y-81875000D01*
X106914432Y-81875968D01*
G37*
G36*
X106664430Y-81375969D02*
G01*
X106673884Y-81378837D01*
X106682599Y-81383495D01*
X106690237Y-81389761D01*
X106696503Y-81397399D01*
X106701161Y-81406114D01*
X106704029Y-81415568D01*
X106704999Y-81425400D01*
X106704999Y-81534600D01*
X106704029Y-81544432D01*
X106701161Y-81553886D01*
X106696503Y-81562601D01*
X106690237Y-81570239D01*
X106682599Y-81576505D01*
X106673884Y-81581163D01*
X106664430Y-81584031D01*
X106654598Y-81585001D01*
X106545398Y-81585001D01*
X106535566Y-81584031D01*
X106526112Y-81581163D01*
X106517397Y-81576505D01*
X106509759Y-81570239D01*
X106503493Y-81562601D01*
X106498835Y-81553886D01*
X106495967Y-81544432D01*
X106494999Y-81534600D01*
X106494999Y-81425400D01*
X106495967Y-81415568D01*
X106498835Y-81406114D01*
X106503493Y-81397399D01*
X106509759Y-81389761D01*
X106517397Y-81383495D01*
X106526112Y-81378837D01*
X106535566Y-81375969D01*
X106545398Y-81375001D01*
X106654598Y-81375001D01*
X106664430Y-81375969D01*
G37*
G36*
X106664430Y-82375967D02*
G01*
X106673884Y-82378835D01*
X106682599Y-82383493D01*
X106690237Y-82389759D01*
X106696503Y-82397397D01*
X106701161Y-82406112D01*
X106704029Y-82415566D01*
X106704999Y-82425398D01*
X106704999Y-82534598D01*
X106704029Y-82544430D01*
X106701161Y-82553884D01*
X106696503Y-82562599D01*
X106690237Y-82570237D01*
X106682599Y-82576503D01*
X106673884Y-82581161D01*
X106664430Y-82584029D01*
X106654598Y-82584997D01*
X106545398Y-82584997D01*
X106535566Y-82584029D01*
X106526112Y-82581161D01*
X106517397Y-82576503D01*
X106509759Y-82570237D01*
X106503493Y-82562599D01*
X106498835Y-82553884D01*
X106495967Y-82544430D01*
X106494999Y-82534598D01*
X106494999Y-82425398D01*
X106495967Y-82415566D01*
X106498835Y-82406112D01*
X106503493Y-82397397D01*
X106509759Y-82389759D01*
X106517397Y-82383493D01*
X106526112Y-82378835D01*
X106535566Y-82375967D01*
X106545398Y-82374997D01*
X106654598Y-82374997D01*
X106664430Y-82375967D01*
G37*
D11*
X179937500Y-112080000D03*
X181762500Y-112080000D03*
D12*
X105962500Y-84380000D03*
X105962500Y-83580000D03*
D13*
X106850000Y-84630000D03*
X106850000Y-83980000D03*
X106850000Y-83330000D03*
X105075000Y-83330000D03*
X105075000Y-83980000D03*
X105075000Y-84630000D03*
D14*
X145900000Y-125350000D03*
X145900000Y-128650000D03*
X150800000Y-128650000D03*
X150800000Y-125350000D03*
D15*
X127380000Y-106580000D03*
X127380000Y-108405000D03*
D11*
X126350000Y-83580000D03*
X128175000Y-83580000D03*
D16*
X187850000Y-81580000D03*
X186025000Y-81580000D03*
D17*
X121580000Y-74072500D03*
X121580000Y-72247500D03*
D14*
X136900000Y-125430000D03*
X136900000Y-128730000D03*
X141800000Y-128730000D03*
X141800000Y-125430000D03*
D15*
X183845000Y-80897500D03*
X183845000Y-82722500D03*
D18*
X98450000Y-81305000D03*
D19*
X101125000Y-80005000D03*
X101125000Y-80655000D03*
X101125000Y-81305000D03*
X101125000Y-81955000D03*
X101125000Y-82605000D03*
D20*
X98450000Y-84805000D03*
X98450000Y-77805000D03*
D14*
X154900000Y-125350000D03*
X154900000Y-128650000D03*
X159800000Y-128650000D03*
X159800000Y-125350000D03*
D11*
X134592500Y-65580000D03*
X132767500Y-65580000D03*
D21*
X115646000Y-83530000D03*
X115646000Y-85080000D03*
D22*
X190225000Y-112245000D03*
X195475000Y-112245000D03*
X190225000Y-115445000D03*
X195475000Y-115445000D03*
D17*
X121234000Y-86080000D03*
X121234000Y-87905000D03*
D23*
X183000000Y-114580000D03*
X179700000Y-114580000D03*
D21*
X117350000Y-85580000D03*
X117350000Y-87130000D03*
X113868000Y-83553000D03*
X113868000Y-85103000D03*
D15*
X181305000Y-81532500D03*
X181305000Y-83357500D03*
X185750000Y-110697500D03*
X185750000Y-112522500D03*
D24*
X135575000Y-112090000D03*
X137125000Y-112090000D03*
D15*
X126850000Y-78167500D03*
X126850000Y-79992500D03*
D17*
X119350000Y-74112500D03*
X119350000Y-72287500D03*
D15*
X123520000Y-86080000D03*
X123520000Y-87905000D03*
D25*
X139850000Y-118480000D03*
X139850000Y-115680000D03*
D17*
X125806000Y-87992500D03*
X125806000Y-86167500D03*
D22*
X190025000Y-79426000D03*
X195275000Y-79426000D03*
X190025000Y-82626000D03*
X195275000Y-82626000D03*
D26*
X118900000Y-79130000D03*
X119400000Y-79130000D03*
X119900000Y-79130000D03*
X120400000Y-79130000D03*
X120900000Y-79130000D03*
X121400000Y-79130000D03*
X121900000Y-79130000D03*
D27*
X122850000Y-80080000D03*
X122850000Y-80580000D03*
X122850000Y-81080000D03*
X122850000Y-81580000D03*
X122850000Y-82080000D03*
X122850000Y-82580000D03*
X122850000Y-83080000D03*
D26*
X121900000Y-84030000D03*
X121400000Y-84030000D03*
X120900000Y-84030000D03*
X120400000Y-84030000D03*
X119900000Y-84030000D03*
X119400000Y-84030000D03*
X118900000Y-84030000D03*
D27*
X117950000Y-83080000D03*
X117950000Y-82580000D03*
X117950000Y-82080000D03*
X117950000Y-81580000D03*
X117950000Y-81080000D03*
X117950000Y-80580000D03*
X117950000Y-80080000D03*
D28*
X121520000Y-82700000D03*
X121520000Y-81580000D03*
X121520000Y-80460000D03*
X120400000Y-82700000D03*
X120400000Y-81580000D03*
X120400000Y-80460000D03*
X119280000Y-82700000D03*
X119280000Y-81580000D03*
X119280000Y-80460000D03*
D11*
X180937500Y-117080000D03*
X182762500Y-117080000D03*
D29*
X191351000Y-87080000D03*
X189801000Y-87080000D03*
D24*
X132075000Y-110236000D03*
X133625000Y-110236000D03*
D16*
X123437500Y-74080000D03*
X125262500Y-74080000D03*
D11*
X123437500Y-76200000D03*
X125262500Y-76200000D03*
D30*
X137150000Y-114430000D03*
X134850000Y-114430000D03*
D31*
X134850000Y-120730000D03*
D30*
X132550000Y-114430000D03*
D16*
X133350000Y-73580000D03*
X131525000Y-73580000D03*
D17*
X142350000Y-117992500D03*
X142350000Y-116167500D03*
D32*
X127450000Y-74780000D03*
X127450000Y-75430000D03*
X127450000Y-76080000D03*
X129350000Y-76080000D03*
X129350000Y-75430000D03*
X129350000Y-74780000D03*
D21*
X118850000Y-85580000D03*
X118850000Y-87130000D03*
D24*
X132075000Y-112080000D03*
X133625000Y-112080000D03*
X135575000Y-110236000D03*
X137125000Y-110236000D03*
X193309000Y-85330000D03*
X194859000Y-85330000D03*
X193309000Y-87080000D03*
X194859000Y-87080000D03*
D33*
X195990000Y-89100000D03*
X194720000Y-89100000D03*
X193450000Y-89100000D03*
X192180000Y-89100000D03*
X190910000Y-89100000D03*
X189640000Y-89100000D03*
X188370000Y-89100000D03*
X187100000Y-89100000D03*
X185830000Y-89100000D03*
X184560000Y-89100000D03*
X183290000Y-89100000D03*
X182020000Y-89100000D03*
X180750000Y-89100000D03*
X179480000Y-89100000D03*
X179480000Y-106600000D03*
X180750000Y-106600000D03*
X182020000Y-106600000D03*
X183290000Y-106600000D03*
X184560000Y-106600000D03*
X185830000Y-106600000D03*
X187100000Y-106600000D03*
X188370000Y-106600000D03*
X189640000Y-106600000D03*
X190910000Y-106600000D03*
X192180000Y-106600000D03*
X193450000Y-106600000D03*
X194720000Y-106600000D03*
X195990000Y-106600000D03*
D34*
X190270000Y-96345000D03*
X191520000Y-95095000D03*
X190270000Y-95095000D03*
X189020000Y-95095000D03*
X189020000Y-96345000D03*
X189020000Y-97595000D03*
X190270000Y-97595000D03*
X191520000Y-97595000D03*
X191520000Y-96345000D03*
D17*
X128850000Y-72492500D03*
X128850000Y-70667500D03*
M02*
