G04 #@! TF.GenerationSoftware,KiCad,Pcbnew,8.0.6*
G04 #@! TF.CreationDate,2025-02-16T00:38:08-05:00*
G04 #@! TF.ProjectId,SCAN_mainboard,5343414e-5f6d-4616-996e-626f6172642e,v1.0*
G04 #@! TF.SameCoordinates,Original*
G04 #@! TF.FileFunction,Soldermask,Bot*
G04 #@! TF.FilePolarity,Negative*
%FSLAX46Y46*%
G04 Gerber Fmt 4.6, Leading zero omitted, Abs format (unit mm)*
G04 Created by KiCad (PCBNEW 8.0.6) date 2025-02-16 00:38:08*
%MOMM*%
%LPD*%
G01*
G04 APERTURE LIST*
G04 Aperture macros list*
%AMRoundRect*
0 Rectangle with rounded corners*
0 $1 Rounding radius*
0 $2 $3 $4 $5 $6 $7 $8 $9 X,Y pos of 4 corners*
0 Add a 4 corners polygon primitive as box body*
4,1,4,$2,$3,$4,$5,$6,$7,$8,$9,$2,$3,0*
0 Add four circle primitives for the rounded corners*
1,1,$1+$1,$2,$3*
1,1,$1+$1,$4,$5*
1,1,$1+$1,$6,$7*
1,1,$1+$1,$8,$9*
0 Add four rect primitives between the rounded corners*
20,1,$1+$1,$2,$3,$4,$5,0*
20,1,$1+$1,$4,$5,$6,$7,0*
20,1,$1+$1,$6,$7,$8,$9,0*
20,1,$1+$1,$8,$9,$2,$3,0*%
G04 Aperture macros list end*
%ADD10C,5.600000*%
%ADD11C,3.000000*%
%ADD12RoundRect,0.250001X0.759999X-0.499999X0.759999X0.499999X-0.759999X0.499999X-0.759999X-0.499999X0*%
%ADD13O,2.020000X1.500000*%
%ADD14R,1.700000X1.700000*%
%ADD15O,1.700000X1.700000*%
%ADD16R,2.000000X2.000000*%
%ADD17C,2.000000*%
%ADD18O,1.900000X1.000000*%
%ADD19O,1.250000X1.050000*%
%ADD20RoundRect,0.102000X-0.565000X-0.565000X0.565000X-0.565000X0.565000X0.565000X-0.565000X0.565000X0*%
%ADD21C,1.334000*%
G04 APERTURE END LIST*
D10*
X191770000Y-127000000D03*
X191770000Y-67160000D03*
X101930000Y-127000000D03*
X101930000Y-67160000D03*
D11*
X102000000Y-116430000D03*
X102000000Y-93730000D03*
D12*
X106320000Y-118580000D03*
D13*
X106320000Y-115580000D03*
X106320000Y-112580000D03*
X106320000Y-109580000D03*
X106320000Y-106580000D03*
X106320000Y-103580000D03*
X106320000Y-100580000D03*
X106320000Y-97580000D03*
X106320000Y-94580000D03*
X106320000Y-91580000D03*
D14*
X118850000Y-97580000D03*
D15*
X116310000Y-97580000D03*
X118850000Y-95040000D03*
X116310000Y-95040000D03*
X118850000Y-92500000D03*
X116310000Y-92500000D03*
D14*
X160365000Y-65890000D03*
D15*
X162905000Y-65890000D03*
X165445000Y-65890000D03*
X167985000Y-65890000D03*
X170525000Y-65890000D03*
X173065000Y-65890000D03*
X175605000Y-65890000D03*
X178145000Y-65890000D03*
D16*
X158350000Y-114150000D03*
D17*
X150750000Y-114150000D03*
D18*
X98450000Y-85480000D03*
D19*
X101450000Y-83530000D03*
X101450000Y-79080000D03*
D18*
X98450000Y-77130000D03*
D15*
X147650000Y-65890000D03*
X145110000Y-65890000D03*
D14*
X142570000Y-65890000D03*
X182850000Y-127865000D03*
D15*
X180310000Y-127865000D03*
X177770000Y-127865000D03*
X175230000Y-127865000D03*
X172690000Y-127865000D03*
X170150000Y-127865000D03*
X167610000Y-127865000D03*
X165070000Y-127865000D03*
D20*
X115410000Y-106690000D03*
D21*
X115410000Y-109230000D03*
X115410000Y-111770000D03*
X115410000Y-114310000D03*
X115410000Y-116850000D03*
X115410000Y-119390000D03*
X115410000Y-121930000D03*
X115410000Y-124470000D03*
X123350000Y-124470000D03*
X123350000Y-121930000D03*
X123350000Y-119390000D03*
X123350000Y-116850000D03*
X123350000Y-114310000D03*
X123350000Y-111770000D03*
X123350000Y-109230000D03*
X123350000Y-106690000D03*
D15*
X127325000Y-65970000D03*
X124785000Y-65970000D03*
X122245000Y-65970000D03*
X119705000Y-65970000D03*
X117165000Y-65970000D03*
X114625000Y-65970000D03*
D14*
X112085000Y-65970000D03*
X128420000Y-127795000D03*
D15*
X125880000Y-127795000D03*
X123340000Y-127795000D03*
X120800000Y-127795000D03*
X118260000Y-127795000D03*
X115720000Y-127795000D03*
X113180000Y-127795000D03*
X110640000Y-127795000D03*
M02*
