%TF.GenerationSoftware,KiCad,Pcbnew,8.0.6*%
%TF.CreationDate,2025-02-16T00:38:14-05:00*%
%TF.ProjectId,SCAN_mainboard,5343414e-5f6d-4616-996e-626f6172642e,v1.0*%
%TF.SameCoordinates,Original*%
%TF.FileFunction,Drillmap*%
%TF.FilePolarity,Positive*%
%FSLAX45Y45*%
G04 Gerber Fmt 4.5, Leading zero omitted, Abs format (unit mm)*
G04 Created by KiCad (PCBNEW 8.0.6) date 2025-02-16 00:38:14*
%MOMM*%
%LPD*%
G01*
G04 APERTURE LIST*
%ADD10C,0.100000*%
%ADD11C,0.200000*%
%ADD12C,0.300000*%
G04 APERTURE END LIST*
D10*
X9685000Y-6208000D02*
X19685000Y-6208000D01*
X19685000Y-13208000D01*
X9685000Y-13208000D01*
X9685000Y-6208000D01*
X9857500Y-8325500D02*
G75*
G02*
X9857500Y-8410500I0J-42500D01*
G01*
X9857500Y-7850500D02*
G75*
G02*
X9857500Y-7935500I0J-42500D01*
G01*
X9700000Y-8410500D02*
X9700000Y-8505500D01*
X9857500Y-8410500D02*
X9700000Y-8410500D01*
X9857500Y-8325500D02*
X9700000Y-8325500D01*
X9700000Y-7935500D02*
X9700000Y-8325500D01*
X9857500Y-7935500D02*
X9700000Y-7935500D01*
X9857500Y-7850500D02*
X9700000Y-7850500D01*
X9700000Y-7755500D02*
X9700000Y-7850500D01*
D11*
D12*
X10050000Y-9223000D02*
X10350000Y-9523000D01*
X10350000Y-9223000D02*
X10050000Y-9523000D01*
X10050000Y-11493000D02*
X10350000Y-11793000D01*
X10350000Y-11493000D02*
X10050000Y-11793000D01*
D11*
X9940777Y-13524484D02*
X9940777Y-13324484D01*
X9940777Y-13324484D02*
X9988396Y-13324484D01*
X9988396Y-13324484D02*
X10016967Y-13334008D01*
X10016967Y-13334008D02*
X10036015Y-13353055D01*
X10036015Y-13353055D02*
X10045539Y-13372103D01*
X10045539Y-13372103D02*
X10055063Y-13410198D01*
X10055063Y-13410198D02*
X10055063Y-13438769D01*
X10055063Y-13438769D02*
X10045539Y-13476865D01*
X10045539Y-13476865D02*
X10036015Y-13495912D01*
X10036015Y-13495912D02*
X10016967Y-13514960D01*
X10016967Y-13514960D02*
X9988396Y-13524484D01*
X9988396Y-13524484D02*
X9940777Y-13524484D01*
X10140777Y-13524484D02*
X10140777Y-13391150D01*
X10140777Y-13429246D02*
X10150301Y-13410198D01*
X10150301Y-13410198D02*
X10159824Y-13400674D01*
X10159824Y-13400674D02*
X10178872Y-13391150D01*
X10178872Y-13391150D02*
X10197920Y-13391150D01*
X10264586Y-13524484D02*
X10264586Y-13391150D01*
X10264586Y-13324484D02*
X10255063Y-13334008D01*
X10255063Y-13334008D02*
X10264586Y-13343531D01*
X10264586Y-13343531D02*
X10274110Y-13334008D01*
X10274110Y-13334008D02*
X10264586Y-13324484D01*
X10264586Y-13324484D02*
X10264586Y-13343531D01*
X10388396Y-13524484D02*
X10369348Y-13514960D01*
X10369348Y-13514960D02*
X10359824Y-13495912D01*
X10359824Y-13495912D02*
X10359824Y-13324484D01*
X10493158Y-13524484D02*
X10474110Y-13514960D01*
X10474110Y-13514960D02*
X10464586Y-13495912D01*
X10464586Y-13495912D02*
X10464586Y-13324484D01*
X10721729Y-13524484D02*
X10721729Y-13324484D01*
X10721729Y-13324484D02*
X10788396Y-13467341D01*
X10788396Y-13467341D02*
X10855063Y-13324484D01*
X10855063Y-13324484D02*
X10855063Y-13524484D01*
X11036015Y-13524484D02*
X11036015Y-13419722D01*
X11036015Y-13419722D02*
X11026491Y-13400674D01*
X11026491Y-13400674D02*
X11007444Y-13391150D01*
X11007444Y-13391150D02*
X10969348Y-13391150D01*
X10969348Y-13391150D02*
X10950301Y-13400674D01*
X11036015Y-13514960D02*
X11016967Y-13524484D01*
X11016967Y-13524484D02*
X10969348Y-13524484D01*
X10969348Y-13524484D02*
X10950301Y-13514960D01*
X10950301Y-13514960D02*
X10940777Y-13495912D01*
X10940777Y-13495912D02*
X10940777Y-13476865D01*
X10940777Y-13476865D02*
X10950301Y-13457817D01*
X10950301Y-13457817D02*
X10969348Y-13448293D01*
X10969348Y-13448293D02*
X11016967Y-13448293D01*
X11016967Y-13448293D02*
X11036015Y-13438769D01*
X11131253Y-13391150D02*
X11131253Y-13591150D01*
X11131253Y-13400674D02*
X11150301Y-13391150D01*
X11150301Y-13391150D02*
X11188396Y-13391150D01*
X11188396Y-13391150D02*
X11207443Y-13400674D01*
X11207443Y-13400674D02*
X11216967Y-13410198D01*
X11216967Y-13410198D02*
X11226491Y-13429246D01*
X11226491Y-13429246D02*
X11226491Y-13486388D01*
X11226491Y-13486388D02*
X11216967Y-13505436D01*
X11216967Y-13505436D02*
X11207443Y-13514960D01*
X11207443Y-13514960D02*
X11188396Y-13524484D01*
X11188396Y-13524484D02*
X11150301Y-13524484D01*
X11150301Y-13524484D02*
X11131253Y-13514960D01*
X11312205Y-13505436D02*
X11321729Y-13514960D01*
X11321729Y-13514960D02*
X11312205Y-13524484D01*
X11312205Y-13524484D02*
X11302682Y-13514960D01*
X11302682Y-13514960D02*
X11312205Y-13505436D01*
X11312205Y-13505436D02*
X11312205Y-13524484D01*
X11312205Y-13400674D02*
X11321729Y-13410198D01*
X11321729Y-13410198D02*
X11312205Y-13419722D01*
X11312205Y-13419722D02*
X11302682Y-13410198D01*
X11302682Y-13410198D02*
X11312205Y-13400674D01*
X11312205Y-13400674D02*
X11312205Y-13419722D01*
X9480000Y-13753000D02*
X9680000Y-13953000D01*
X9680000Y-13753000D02*
X9480000Y-13953000D01*
X9921729Y-13744484D02*
X10045539Y-13744484D01*
X10045539Y-13744484D02*
X9978872Y-13820674D01*
X9978872Y-13820674D02*
X10007444Y-13820674D01*
X10007444Y-13820674D02*
X10026491Y-13830198D01*
X10026491Y-13830198D02*
X10036015Y-13839722D01*
X10036015Y-13839722D02*
X10045539Y-13858769D01*
X10045539Y-13858769D02*
X10045539Y-13906388D01*
X10045539Y-13906388D02*
X10036015Y-13925436D01*
X10036015Y-13925436D02*
X10026491Y-13934960D01*
X10026491Y-13934960D02*
X10007444Y-13944484D01*
X10007444Y-13944484D02*
X9950301Y-13944484D01*
X9950301Y-13944484D02*
X9931253Y-13934960D01*
X9931253Y-13934960D02*
X9921729Y-13925436D01*
X10131253Y-13925436D02*
X10140777Y-13934960D01*
X10140777Y-13934960D02*
X10131253Y-13944484D01*
X10131253Y-13944484D02*
X10121729Y-13934960D01*
X10121729Y-13934960D02*
X10131253Y-13925436D01*
X10131253Y-13925436D02*
X10131253Y-13944484D01*
X10264586Y-13744484D02*
X10283634Y-13744484D01*
X10283634Y-13744484D02*
X10302682Y-13754008D01*
X10302682Y-13754008D02*
X10312205Y-13763531D01*
X10312205Y-13763531D02*
X10321729Y-13782579D01*
X10321729Y-13782579D02*
X10331253Y-13820674D01*
X10331253Y-13820674D02*
X10331253Y-13868293D01*
X10331253Y-13868293D02*
X10321729Y-13906388D01*
X10321729Y-13906388D02*
X10312205Y-13925436D01*
X10312205Y-13925436D02*
X10302682Y-13934960D01*
X10302682Y-13934960D02*
X10283634Y-13944484D01*
X10283634Y-13944484D02*
X10264586Y-13944484D01*
X10264586Y-13944484D02*
X10245539Y-13934960D01*
X10245539Y-13934960D02*
X10236015Y-13925436D01*
X10236015Y-13925436D02*
X10226491Y-13906388D01*
X10226491Y-13906388D02*
X10216967Y-13868293D01*
X10216967Y-13868293D02*
X10216967Y-13820674D01*
X10216967Y-13820674D02*
X10226491Y-13782579D01*
X10226491Y-13782579D02*
X10236015Y-13763531D01*
X10236015Y-13763531D02*
X10245539Y-13754008D01*
X10245539Y-13754008D02*
X10264586Y-13744484D01*
X10455063Y-13744484D02*
X10474110Y-13744484D01*
X10474110Y-13744484D02*
X10493158Y-13754008D01*
X10493158Y-13754008D02*
X10502682Y-13763531D01*
X10502682Y-13763531D02*
X10512205Y-13782579D01*
X10512205Y-13782579D02*
X10521729Y-13820674D01*
X10521729Y-13820674D02*
X10521729Y-13868293D01*
X10521729Y-13868293D02*
X10512205Y-13906388D01*
X10512205Y-13906388D02*
X10502682Y-13925436D01*
X10502682Y-13925436D02*
X10493158Y-13934960D01*
X10493158Y-13934960D02*
X10474110Y-13944484D01*
X10474110Y-13944484D02*
X10455063Y-13944484D01*
X10455063Y-13944484D02*
X10436015Y-13934960D01*
X10436015Y-13934960D02*
X10426491Y-13925436D01*
X10426491Y-13925436D02*
X10416967Y-13906388D01*
X10416967Y-13906388D02*
X10407444Y-13868293D01*
X10407444Y-13868293D02*
X10407444Y-13820674D01*
X10407444Y-13820674D02*
X10416967Y-13782579D01*
X10416967Y-13782579D02*
X10426491Y-13763531D01*
X10426491Y-13763531D02*
X10436015Y-13754008D01*
X10436015Y-13754008D02*
X10455063Y-13744484D01*
X10645539Y-13744484D02*
X10664586Y-13744484D01*
X10664586Y-13744484D02*
X10683634Y-13754008D01*
X10683634Y-13754008D02*
X10693158Y-13763531D01*
X10693158Y-13763531D02*
X10702682Y-13782579D01*
X10702682Y-13782579D02*
X10712205Y-13820674D01*
X10712205Y-13820674D02*
X10712205Y-13868293D01*
X10712205Y-13868293D02*
X10702682Y-13906388D01*
X10702682Y-13906388D02*
X10693158Y-13925436D01*
X10693158Y-13925436D02*
X10683634Y-13934960D01*
X10683634Y-13934960D02*
X10664586Y-13944484D01*
X10664586Y-13944484D02*
X10645539Y-13944484D01*
X10645539Y-13944484D02*
X10626491Y-13934960D01*
X10626491Y-13934960D02*
X10616967Y-13925436D01*
X10616967Y-13925436D02*
X10607444Y-13906388D01*
X10607444Y-13906388D02*
X10597920Y-13868293D01*
X10597920Y-13868293D02*
X10597920Y-13820674D01*
X10597920Y-13820674D02*
X10607444Y-13782579D01*
X10607444Y-13782579D02*
X10616967Y-13763531D01*
X10616967Y-13763531D02*
X10626491Y-13754008D01*
X10626491Y-13754008D02*
X10645539Y-13744484D01*
X10797920Y-13944484D02*
X10797920Y-13811150D01*
X10797920Y-13830198D02*
X10807444Y-13820674D01*
X10807444Y-13820674D02*
X10826491Y-13811150D01*
X10826491Y-13811150D02*
X10855063Y-13811150D01*
X10855063Y-13811150D02*
X10874110Y-13820674D01*
X10874110Y-13820674D02*
X10883634Y-13839722D01*
X10883634Y-13839722D02*
X10883634Y-13944484D01*
X10883634Y-13839722D02*
X10893158Y-13820674D01*
X10893158Y-13820674D02*
X10912205Y-13811150D01*
X10912205Y-13811150D02*
X10940777Y-13811150D01*
X10940777Y-13811150D02*
X10959825Y-13820674D01*
X10959825Y-13820674D02*
X10969348Y-13839722D01*
X10969348Y-13839722D02*
X10969348Y-13944484D01*
X11064586Y-13944484D02*
X11064586Y-13811150D01*
X11064586Y-13830198D02*
X11074110Y-13820674D01*
X11074110Y-13820674D02*
X11093158Y-13811150D01*
X11093158Y-13811150D02*
X11121729Y-13811150D01*
X11121729Y-13811150D02*
X11140777Y-13820674D01*
X11140777Y-13820674D02*
X11150301Y-13839722D01*
X11150301Y-13839722D02*
X11150301Y-13944484D01*
X11150301Y-13839722D02*
X11159825Y-13820674D01*
X11159825Y-13820674D02*
X11178872Y-13811150D01*
X11178872Y-13811150D02*
X11207443Y-13811150D01*
X11207443Y-13811150D02*
X11226491Y-13820674D01*
X11226491Y-13820674D02*
X11236015Y-13839722D01*
X11236015Y-13839722D02*
X11236015Y-13944484D01*
X11626491Y-13734960D02*
X11455063Y-13992103D01*
X11883634Y-13744484D02*
X11902682Y-13744484D01*
X11902682Y-13744484D02*
X11921729Y-13754008D01*
X11921729Y-13754008D02*
X11931253Y-13763531D01*
X11931253Y-13763531D02*
X11940777Y-13782579D01*
X11940777Y-13782579D02*
X11950301Y-13820674D01*
X11950301Y-13820674D02*
X11950301Y-13868293D01*
X11950301Y-13868293D02*
X11940777Y-13906388D01*
X11940777Y-13906388D02*
X11931253Y-13925436D01*
X11931253Y-13925436D02*
X11921729Y-13934960D01*
X11921729Y-13934960D02*
X11902682Y-13944484D01*
X11902682Y-13944484D02*
X11883634Y-13944484D01*
X11883634Y-13944484D02*
X11864586Y-13934960D01*
X11864586Y-13934960D02*
X11855063Y-13925436D01*
X11855063Y-13925436D02*
X11845539Y-13906388D01*
X11845539Y-13906388D02*
X11836015Y-13868293D01*
X11836015Y-13868293D02*
X11836015Y-13820674D01*
X11836015Y-13820674D02*
X11845539Y-13782579D01*
X11845539Y-13782579D02*
X11855063Y-13763531D01*
X11855063Y-13763531D02*
X11864586Y-13754008D01*
X11864586Y-13754008D02*
X11883634Y-13744484D01*
X12036015Y-13925436D02*
X12045539Y-13934960D01*
X12045539Y-13934960D02*
X12036015Y-13944484D01*
X12036015Y-13944484D02*
X12026491Y-13934960D01*
X12026491Y-13934960D02*
X12036015Y-13925436D01*
X12036015Y-13925436D02*
X12036015Y-13944484D01*
X12236015Y-13944484D02*
X12121729Y-13944484D01*
X12178872Y-13944484D02*
X12178872Y-13744484D01*
X12178872Y-13744484D02*
X12159825Y-13773055D01*
X12159825Y-13773055D02*
X12140777Y-13792103D01*
X12140777Y-13792103D02*
X12121729Y-13801627D01*
X12426491Y-13944484D02*
X12312206Y-13944484D01*
X12369348Y-13944484D02*
X12369348Y-13744484D01*
X12369348Y-13744484D02*
X12350301Y-13773055D01*
X12350301Y-13773055D02*
X12331253Y-13792103D01*
X12331253Y-13792103D02*
X12312206Y-13801627D01*
X12540777Y-13830198D02*
X12521729Y-13820674D01*
X12521729Y-13820674D02*
X12512206Y-13811150D01*
X12512206Y-13811150D02*
X12502682Y-13792103D01*
X12502682Y-13792103D02*
X12502682Y-13782579D01*
X12502682Y-13782579D02*
X12512206Y-13763531D01*
X12512206Y-13763531D02*
X12521729Y-13754008D01*
X12521729Y-13754008D02*
X12540777Y-13744484D01*
X12540777Y-13744484D02*
X12578872Y-13744484D01*
X12578872Y-13744484D02*
X12597920Y-13754008D01*
X12597920Y-13754008D02*
X12607444Y-13763531D01*
X12607444Y-13763531D02*
X12616967Y-13782579D01*
X12616967Y-13782579D02*
X12616967Y-13792103D01*
X12616967Y-13792103D02*
X12607444Y-13811150D01*
X12607444Y-13811150D02*
X12597920Y-13820674D01*
X12597920Y-13820674D02*
X12578872Y-13830198D01*
X12578872Y-13830198D02*
X12540777Y-13830198D01*
X12540777Y-13830198D02*
X12521729Y-13839722D01*
X12521729Y-13839722D02*
X12512206Y-13849246D01*
X12512206Y-13849246D02*
X12502682Y-13868293D01*
X12502682Y-13868293D02*
X12502682Y-13906388D01*
X12502682Y-13906388D02*
X12512206Y-13925436D01*
X12512206Y-13925436D02*
X12521729Y-13934960D01*
X12521729Y-13934960D02*
X12540777Y-13944484D01*
X12540777Y-13944484D02*
X12578872Y-13944484D01*
X12578872Y-13944484D02*
X12597920Y-13934960D01*
X12597920Y-13934960D02*
X12607444Y-13925436D01*
X12607444Y-13925436D02*
X12616967Y-13906388D01*
X12616967Y-13906388D02*
X12616967Y-13868293D01*
X12616967Y-13868293D02*
X12607444Y-13849246D01*
X12607444Y-13849246D02*
X12597920Y-13839722D01*
X12597920Y-13839722D02*
X12578872Y-13830198D01*
X12807444Y-13944484D02*
X12693158Y-13944484D01*
X12750301Y-13944484D02*
X12750301Y-13744484D01*
X12750301Y-13744484D02*
X12731253Y-13773055D01*
X12731253Y-13773055D02*
X12712206Y-13792103D01*
X12712206Y-13792103D02*
X12693158Y-13801627D01*
X12883634Y-13744484D02*
X12883634Y-13782579D01*
X12959825Y-13744484D02*
X12959825Y-13782579D01*
X13255063Y-14020674D02*
X13245539Y-14011150D01*
X13245539Y-14011150D02*
X13226491Y-13982579D01*
X13226491Y-13982579D02*
X13216968Y-13963531D01*
X13216968Y-13963531D02*
X13207444Y-13934960D01*
X13207444Y-13934960D02*
X13197920Y-13887341D01*
X13197920Y-13887341D02*
X13197920Y-13849246D01*
X13197920Y-13849246D02*
X13207444Y-13801627D01*
X13207444Y-13801627D02*
X13216968Y-13773055D01*
X13216968Y-13773055D02*
X13226491Y-13754008D01*
X13226491Y-13754008D02*
X13245539Y-13725436D01*
X13245539Y-13725436D02*
X13255063Y-13715912D01*
X13321729Y-13763531D02*
X13331253Y-13754008D01*
X13331253Y-13754008D02*
X13350301Y-13744484D01*
X13350301Y-13744484D02*
X13397920Y-13744484D01*
X13397920Y-13744484D02*
X13416968Y-13754008D01*
X13416968Y-13754008D02*
X13426491Y-13763531D01*
X13426491Y-13763531D02*
X13436015Y-13782579D01*
X13436015Y-13782579D02*
X13436015Y-13801627D01*
X13436015Y-13801627D02*
X13426491Y-13830198D01*
X13426491Y-13830198D02*
X13312206Y-13944484D01*
X13312206Y-13944484D02*
X13436015Y-13944484D01*
X13674110Y-13944484D02*
X13674110Y-13744484D01*
X13759825Y-13944484D02*
X13759825Y-13839722D01*
X13759825Y-13839722D02*
X13750301Y-13820674D01*
X13750301Y-13820674D02*
X13731253Y-13811150D01*
X13731253Y-13811150D02*
X13702682Y-13811150D01*
X13702682Y-13811150D02*
X13683634Y-13820674D01*
X13683634Y-13820674D02*
X13674110Y-13830198D01*
X13883634Y-13944484D02*
X13864587Y-13934960D01*
X13864587Y-13934960D02*
X13855063Y-13925436D01*
X13855063Y-13925436D02*
X13845539Y-13906388D01*
X13845539Y-13906388D02*
X13845539Y-13849246D01*
X13845539Y-13849246D02*
X13855063Y-13830198D01*
X13855063Y-13830198D02*
X13864587Y-13820674D01*
X13864587Y-13820674D02*
X13883634Y-13811150D01*
X13883634Y-13811150D02*
X13912206Y-13811150D01*
X13912206Y-13811150D02*
X13931253Y-13820674D01*
X13931253Y-13820674D02*
X13940777Y-13830198D01*
X13940777Y-13830198D02*
X13950301Y-13849246D01*
X13950301Y-13849246D02*
X13950301Y-13906388D01*
X13950301Y-13906388D02*
X13940777Y-13925436D01*
X13940777Y-13925436D02*
X13931253Y-13934960D01*
X13931253Y-13934960D02*
X13912206Y-13944484D01*
X13912206Y-13944484D02*
X13883634Y-13944484D01*
X14064587Y-13944484D02*
X14045539Y-13934960D01*
X14045539Y-13934960D02*
X14036015Y-13915912D01*
X14036015Y-13915912D02*
X14036015Y-13744484D01*
X14216968Y-13934960D02*
X14197920Y-13944484D01*
X14197920Y-13944484D02*
X14159825Y-13944484D01*
X14159825Y-13944484D02*
X14140777Y-13934960D01*
X14140777Y-13934960D02*
X14131253Y-13915912D01*
X14131253Y-13915912D02*
X14131253Y-13839722D01*
X14131253Y-13839722D02*
X14140777Y-13820674D01*
X14140777Y-13820674D02*
X14159825Y-13811150D01*
X14159825Y-13811150D02*
X14197920Y-13811150D01*
X14197920Y-13811150D02*
X14216968Y-13820674D01*
X14216968Y-13820674D02*
X14226491Y-13839722D01*
X14226491Y-13839722D02*
X14226491Y-13858769D01*
X14226491Y-13858769D02*
X14131253Y-13877817D01*
X14302682Y-13934960D02*
X14321730Y-13944484D01*
X14321730Y-13944484D02*
X14359825Y-13944484D01*
X14359825Y-13944484D02*
X14378872Y-13934960D01*
X14378872Y-13934960D02*
X14388396Y-13915912D01*
X14388396Y-13915912D02*
X14388396Y-13906388D01*
X14388396Y-13906388D02*
X14378872Y-13887341D01*
X14378872Y-13887341D02*
X14359825Y-13877817D01*
X14359825Y-13877817D02*
X14331253Y-13877817D01*
X14331253Y-13877817D02*
X14312206Y-13868293D01*
X14312206Y-13868293D02*
X14302682Y-13849246D01*
X14302682Y-13849246D02*
X14302682Y-13839722D01*
X14302682Y-13839722D02*
X14312206Y-13820674D01*
X14312206Y-13820674D02*
X14331253Y-13811150D01*
X14331253Y-13811150D02*
X14359825Y-13811150D01*
X14359825Y-13811150D02*
X14378872Y-13820674D01*
X14455063Y-14020674D02*
X14464587Y-14011150D01*
X14464587Y-14011150D02*
X14483634Y-13982579D01*
X14483634Y-13982579D02*
X14493158Y-13963531D01*
X14493158Y-13963531D02*
X14502682Y-13934960D01*
X14502682Y-13934960D02*
X14512206Y-13887341D01*
X14512206Y-13887341D02*
X14512206Y-13849246D01*
X14512206Y-13849246D02*
X14502682Y-13801627D01*
X14502682Y-13801627D02*
X14493158Y-13773055D01*
X14493158Y-13773055D02*
X14483634Y-13754008D01*
X14483634Y-13754008D02*
X14464587Y-13725436D01*
X14464587Y-13725436D02*
X14455063Y-13715912D01*
X14816968Y-14020674D02*
X14807444Y-14011150D01*
X14807444Y-14011150D02*
X14788396Y-13982579D01*
X14788396Y-13982579D02*
X14778872Y-13963531D01*
X14778872Y-13963531D02*
X14769349Y-13934960D01*
X14769349Y-13934960D02*
X14759825Y-13887341D01*
X14759825Y-13887341D02*
X14759825Y-13849246D01*
X14759825Y-13849246D02*
X14769349Y-13801627D01*
X14769349Y-13801627D02*
X14778872Y-13773055D01*
X14778872Y-13773055D02*
X14788396Y-13754008D01*
X14788396Y-13754008D02*
X14807444Y-13725436D01*
X14807444Y-13725436D02*
X14816968Y-13715912D01*
X14893158Y-13811150D02*
X14893158Y-13944484D01*
X14893158Y-13830198D02*
X14902682Y-13820674D01*
X14902682Y-13820674D02*
X14921730Y-13811150D01*
X14921730Y-13811150D02*
X14950301Y-13811150D01*
X14950301Y-13811150D02*
X14969349Y-13820674D01*
X14969349Y-13820674D02*
X14978872Y-13839722D01*
X14978872Y-13839722D02*
X14978872Y-13944484D01*
X15102682Y-13944484D02*
X15083634Y-13934960D01*
X15083634Y-13934960D02*
X15074111Y-13925436D01*
X15074111Y-13925436D02*
X15064587Y-13906388D01*
X15064587Y-13906388D02*
X15064587Y-13849246D01*
X15064587Y-13849246D02*
X15074111Y-13830198D01*
X15074111Y-13830198D02*
X15083634Y-13820674D01*
X15083634Y-13820674D02*
X15102682Y-13811150D01*
X15102682Y-13811150D02*
X15131253Y-13811150D01*
X15131253Y-13811150D02*
X15150301Y-13820674D01*
X15150301Y-13820674D02*
X15159825Y-13830198D01*
X15159825Y-13830198D02*
X15169349Y-13849246D01*
X15169349Y-13849246D02*
X15169349Y-13906388D01*
X15169349Y-13906388D02*
X15159825Y-13925436D01*
X15159825Y-13925436D02*
X15150301Y-13934960D01*
X15150301Y-13934960D02*
X15131253Y-13944484D01*
X15131253Y-13944484D02*
X15102682Y-13944484D01*
X15226492Y-13811150D02*
X15302682Y-13811150D01*
X15255063Y-13744484D02*
X15255063Y-13915912D01*
X15255063Y-13915912D02*
X15264587Y-13934960D01*
X15264587Y-13934960D02*
X15283634Y-13944484D01*
X15283634Y-13944484D02*
X15302682Y-13944484D01*
X15521730Y-13811150D02*
X15521730Y-14011150D01*
X15521730Y-13820674D02*
X15540777Y-13811150D01*
X15540777Y-13811150D02*
X15578873Y-13811150D01*
X15578873Y-13811150D02*
X15597920Y-13820674D01*
X15597920Y-13820674D02*
X15607444Y-13830198D01*
X15607444Y-13830198D02*
X15616968Y-13849246D01*
X15616968Y-13849246D02*
X15616968Y-13906388D01*
X15616968Y-13906388D02*
X15607444Y-13925436D01*
X15607444Y-13925436D02*
X15597920Y-13934960D01*
X15597920Y-13934960D02*
X15578873Y-13944484D01*
X15578873Y-13944484D02*
X15540777Y-13944484D01*
X15540777Y-13944484D02*
X15521730Y-13934960D01*
X15731253Y-13944484D02*
X15712206Y-13934960D01*
X15712206Y-13934960D02*
X15702682Y-13915912D01*
X15702682Y-13915912D02*
X15702682Y-13744484D01*
X15893158Y-13944484D02*
X15893158Y-13839722D01*
X15893158Y-13839722D02*
X15883634Y-13820674D01*
X15883634Y-13820674D02*
X15864587Y-13811150D01*
X15864587Y-13811150D02*
X15826492Y-13811150D01*
X15826492Y-13811150D02*
X15807444Y-13820674D01*
X15893158Y-13934960D02*
X15874111Y-13944484D01*
X15874111Y-13944484D02*
X15826492Y-13944484D01*
X15826492Y-13944484D02*
X15807444Y-13934960D01*
X15807444Y-13934960D02*
X15797920Y-13915912D01*
X15797920Y-13915912D02*
X15797920Y-13896865D01*
X15797920Y-13896865D02*
X15807444Y-13877817D01*
X15807444Y-13877817D02*
X15826492Y-13868293D01*
X15826492Y-13868293D02*
X15874111Y-13868293D01*
X15874111Y-13868293D02*
X15893158Y-13858769D01*
X15959825Y-13811150D02*
X16036015Y-13811150D01*
X15988396Y-13744484D02*
X15988396Y-13915912D01*
X15988396Y-13915912D02*
X15997920Y-13934960D01*
X15997920Y-13934960D02*
X16016968Y-13944484D01*
X16016968Y-13944484D02*
X16036015Y-13944484D01*
X16178873Y-13934960D02*
X16159825Y-13944484D01*
X16159825Y-13944484D02*
X16121730Y-13944484D01*
X16121730Y-13944484D02*
X16102682Y-13934960D01*
X16102682Y-13934960D02*
X16093158Y-13915912D01*
X16093158Y-13915912D02*
X16093158Y-13839722D01*
X16093158Y-13839722D02*
X16102682Y-13820674D01*
X16102682Y-13820674D02*
X16121730Y-13811150D01*
X16121730Y-13811150D02*
X16159825Y-13811150D01*
X16159825Y-13811150D02*
X16178873Y-13820674D01*
X16178873Y-13820674D02*
X16188396Y-13839722D01*
X16188396Y-13839722D02*
X16188396Y-13858769D01*
X16188396Y-13858769D02*
X16093158Y-13877817D01*
X16359825Y-13944484D02*
X16359825Y-13744484D01*
X16359825Y-13934960D02*
X16340777Y-13944484D01*
X16340777Y-13944484D02*
X16302682Y-13944484D01*
X16302682Y-13944484D02*
X16283634Y-13934960D01*
X16283634Y-13934960D02*
X16274111Y-13925436D01*
X16274111Y-13925436D02*
X16264587Y-13906388D01*
X16264587Y-13906388D02*
X16264587Y-13849246D01*
X16264587Y-13849246D02*
X16274111Y-13830198D01*
X16274111Y-13830198D02*
X16283634Y-13820674D01*
X16283634Y-13820674D02*
X16302682Y-13811150D01*
X16302682Y-13811150D02*
X16340777Y-13811150D01*
X16340777Y-13811150D02*
X16359825Y-13820674D01*
X16436015Y-14020674D02*
X16445539Y-14011150D01*
X16445539Y-14011150D02*
X16464587Y-13982579D01*
X16464587Y-13982579D02*
X16474111Y-13963531D01*
X16474111Y-13963531D02*
X16483634Y-13934960D01*
X16483634Y-13934960D02*
X16493158Y-13887341D01*
X16493158Y-13887341D02*
X16493158Y-13849246D01*
X16493158Y-13849246D02*
X16483634Y-13801627D01*
X16483634Y-13801627D02*
X16474111Y-13773055D01*
X16474111Y-13773055D02*
X16464587Y-13754008D01*
X16464587Y-13754008D02*
X16445539Y-13725436D01*
X16445539Y-13725436D02*
X16436015Y-13715912D01*
M02*
